<?xml version="1.0" encoding="utf-8"?>
<!-- Generator: Adobe Illustrator 26.0.1, SVG Export Plug-In . SVG Version: 6.00 Build 0)  -->
<svg version="1.1" id="Layer_1" xmlns="http://www.w3.org/2000/svg" xmlns:xlink="http://www.w3.org/1999/xlink" x="0px" y="0px"
	 viewBox="0 0 73.3 456.1" style="enable-background:new 0 0 73.3 456.1;" xml:space="preserve">
<style type="text/css">
	.st0{fill:#1B1B1B;}
</style>
<g>
	<g>
		<path class="st0" d="M15.2,50h41.5l-32.5-19v-2.3l32.5-19H15.2V6.3h48.3v3.5L28.9,29.9L63.4,50v3.5H15.2V50z"/>
		<path class="st0" d="M25.3,62.2c2.1,0,4,0.6,5.5,1.9c1.6,1.3,2.8,3,3.7,5.2c0.9,2.2,1.3,4.8,1.3,7.7c0,1.8-0.2,3.7-0.5,5.6
			c-0.3,1.9-0.7,3.7-1.3,5.2h3.3c3.2,0,5.8-0.9,7.8-2.8c1.9-1.9,2.9-4.5,2.9-7.8c0-1.8-0.4-3.6-1.1-5.5c-0.7-1.9-1.8-3.9-3.1-5.8
			l2.4-1.4c1.5,2.3,2.7,4.5,3.5,6.7c0.8,2.2,1.2,4.3,1.2,6.4c0,4.2-1.2,7.5-3.7,10c-2.5,2.4-5.9,3.7-10.2,3.7H19.6
			c-0.5,0-0.9,0.1-1.2,0.4c-0.3,0.2-0.4,0.6-0.5,1.1h-2.8c0-0.4-0.1-0.7-0.1-1s0-0.5,0-0.7c0.1-0.9,0.5-1.5,1.1-2
			c0.6-0.5,1.2-0.7,2-0.8h2.8c-2-1.6-3.6-3.7-4.8-6.3c-1.1-2.6-1.7-5.2-1.7-8.1c0-2.2,0.5-4.2,1.4-6c0.9-1.8,2.2-3.2,3.9-4.2
			C21.5,62.7,23.3,62.2,25.3,62.2z M22.4,86.6c0.6,0.5,1.2,0.8,1.7,1c0.5,0.2,1,0.3,1.5,0.3h5.8c0.6-1.6,1.1-3.3,1.4-5.1
			c0.3-1.8,0.5-3.6,0.5-5.4c0-3.5-0.7-6.4-2.1-8.6c-1.4-2.2-3.3-3.3-5.7-3.3c-1.5,0-2.9,0.4-4.1,1.2c-1.3,0.8-2.3,1.8-3,3.2
			c-0.8,1.4-1.2,3-1.2,4.8c0,2.5,0.5,4.9,1.5,7C19.6,83.9,20.9,85.5,22.4,86.6z"/>
		<path class="st0" d="M47.5,118.4c-0.1-3.2-1-6-2.8-8.3c-1.8-2.4-4.2-4-7.4-5H15.2v-3.4h35.3v3.3h-8.6c2.5,1.2,4.5,2.9,6.1,4.9
			c1.6,2,2.5,4.2,2.7,6.5c0,0.5,0.1,0.9,0.1,1.2c0,0.4,0,0.7,0,0.9H47.5z"/>
		<path class="st0" d="M15.2,124.8h35.4v3.4H15.2V124.8z M58.5,124.8h6.3v3.4h-6.3V124.8z"/>
		<path class="st0" d="M25.3,136c2.1,0,4,0.6,5.5,1.9c1.6,1.3,2.8,3,3.7,5.2c0.9,2.2,1.3,4.8,1.3,7.7c0,1.8-0.2,3.7-0.5,5.6
			c-0.3,1.9-0.7,3.7-1.3,5.2h3.3c3.2,0,5.8-0.9,7.8-2.8c1.9-1.9,2.9-4.5,2.9-7.8c0-1.8-0.4-3.6-1.1-5.5c-0.7-1.9-1.8-3.9-3.1-5.8
			l2.4-1.4c1.5,2.3,2.7,4.5,3.5,6.7c0.8,2.2,1.2,4.3,1.2,6.4c0,4.2-1.2,7.5-3.7,10c-2.5,2.4-5.9,3.7-10.2,3.7H19.6
			c-0.5,0-0.9,0.1-1.2,0.4c-0.3,0.2-0.4,0.6-0.5,1.1h-2.8c0-0.4-0.1-0.7-0.1-1s0-0.5,0-0.7c0.1-0.9,0.5-1.5,1.1-2
			c0.6-0.5,1.2-0.7,2-0.8h2.8c-2-1.6-3.6-3.7-4.8-6.3c-1.1-2.6-1.7-5.2-1.7-8.1c0-2.2,0.5-4.2,1.4-6c0.9-1.8,2.2-3.2,3.9-4.2
			C21.5,136.5,23.3,136,25.3,136z M22.4,160.3c0.6,0.5,1.2,0.8,1.7,1c0.5,0.2,1,0.3,1.5,0.3h5.8c0.6-1.6,1.1-3.3,1.4-5.1
			c0.3-1.8,0.5-3.6,0.5-5.4c0-3.5-0.7-6.4-2.1-8.6c-1.4-2.2-3.3-3.3-5.7-3.3c-1.5,0-2.9,0.4-4.1,1.2c-1.3,0.8-2.3,1.8-3,3.2
			c-0.8,1.4-1.2,3-1.2,4.8c0,2.5,0.5,4.9,1.5,7C19.6,157.6,20.9,159.3,22.4,160.3z"/>
		<path class="st0" d="M14.8,213.2c0-3.4,0.7-6.4,2.1-9.2c1.4-2.8,3.2-5.1,5.5-7.1c2.3-2,4.9-3.5,7.9-4.6c2.9-1.1,5.9-1.6,9-1.6
			c3.2,0,6.3,0.6,9.2,1.7c2.9,1.1,5.5,2.7,7.8,4.8c2.3,2.1,4.1,4.5,5.4,7.2c1.3,2.7,2,5.7,2,8.9c0,3.4-0.7,6.5-2.1,9.2
			c-1.4,2.7-3.3,5.1-5.6,7.1c-2.4,2-5,3.5-7.9,4.6c-2.9,1.1-5.8,1.6-8.8,1.6c-3.3,0-6.4-0.6-9.3-1.7c-2.9-1.1-5.5-2.7-7.8-4.8
			c-2.3-2.1-4.1-4.5-5.4-7.2C15.5,219.4,14.8,216.4,14.8,213.2z M39.3,194.1c-2.8,0-5.4,0.5-8,1.4c-2.5,1-4.8,2.3-6.8,4
			c-2,1.7-3.6,3.7-4.8,6.1c-1.2,2.3-1.8,4.9-1.8,7.7c0,2.9,0.6,5.5,1.8,7.8c1.2,2.4,2.9,4.4,4.9,6.1c2,1.7,4.3,3,6.8,3.8
			c2.5,0.9,5.1,1.3,7.7,1.3c2.8,0,5.4-0.5,8-1.4c2.5-0.9,4.8-2.3,6.8-4c2-1.7,3.6-3.8,4.8-6.1c1.2-2.3,1.8-4.9,1.8-7.6
			c0-2.9-0.6-5.5-1.8-7.9c-1.2-2.4-2.9-4.4-4.9-6c-2-1.7-4.3-2.9-6.8-3.9C44.5,194.5,41.9,194.1,39.3,194.1z"/>
		<path class="st0" d="M14.5,259.1c0-2.4,0.5-4.7,1.5-6.9s2.3-4,4-5.6c1.7-1.6,3.6-2.8,5.9-3.7c2.2-0.9,4.6-1.3,7.1-1.3
			c3.4,0,6.4,0.7,9.1,2.2s4.9,3.6,6.5,6.2c1.6,2.6,2.4,5.6,2.4,9c0,3.2-0.7,6.1-2.2,8.5c-1.5,2.4-3.5,4.3-6,5.5l-1.1-3.3
			c1.9-1,3.5-2.5,4.6-4.5c1.1-1.9,1.7-4,1.7-6.4c0-2.6-0.7-4.9-2-7c-1.3-2.1-3.1-3.8-5.4-5c-2.3-1.2-4.8-1.9-7.7-1.9
			c-2.8,0-5.4,0.6-7.7,1.9c-2.3,1.3-4.2,3-5.6,5.1s-2.1,4.4-2.1,7c0,1.6,0.3,3.2,0.9,4.8c0.6,1.6,1.4,2.9,2.4,4.1
			c1,1.2,2.1,1.9,3.2,2.3l-1,3.3c-1.7-0.6-3.2-1.6-4.5-3.1c-1.3-1.5-2.3-3.1-3.1-5.1C14.9,263.4,14.5,261.4,14.5,259.1z"/>
		<path class="st0" d="M25.3,278.3c2.1,0,4,0.6,5.5,1.9c1.6,1.3,2.8,3,3.7,5.2c0.9,2.2,1.3,4.8,1.3,7.7c0,1.8-0.2,3.7-0.5,5.6
			c-0.3,1.9-0.7,3.7-1.3,5.2h3.3c3.2,0,5.8-0.9,7.8-2.8c1.9-1.9,2.9-4.5,2.9-7.8c0-1.8-0.4-3.6-1.1-5.5c-0.7-1.9-1.8-3.9-3.1-5.8
			l2.4-1.4c1.5,2.3,2.7,4.5,3.5,6.7s1.2,4.3,1.2,6.4c0,4.2-1.2,7.5-3.7,10c-2.5,2.4-5.9,3.7-10.2,3.7H19.6c-0.5,0-0.9,0.1-1.2,0.4
			c-0.3,0.2-0.4,0.6-0.5,1.1h-2.8c0-0.4-0.1-0.7-0.1-1c0-0.3,0-0.5,0-0.7c0.1-0.9,0.5-1.5,1.1-2c0.6-0.5,1.2-0.7,2-0.8h2.8
			c-2-1.6-3.6-3.7-4.8-6.3c-1.1-2.6-1.7-5.2-1.7-8.1c0-2.2,0.5-4.2,1.4-6c0.9-1.8,2.2-3.2,3.9-4.2C21.5,278.8,23.3,278.3,25.3,278.3
			z M22.4,302.6c0.6,0.5,1.2,0.8,1.7,1c0.5,0.2,1,0.3,1.5,0.3h5.8c0.6-1.6,1.1-3.3,1.4-5.1c0.3-1.8,0.5-3.6,0.5-5.4
			c0-3.5-0.7-6.4-2.1-8.6c-1.4-2.2-3.3-3.3-5.7-3.3c-1.5,0-2.9,0.4-4.1,1.2c-1.3,0.8-2.3,1.8-3,3.2c-0.8,1.4-1.2,3-1.2,4.8
			c0,2.5,0.5,4.9,1.5,7C19.6,299.9,20.9,301.5,22.4,302.6z"/>
		<path class="st0" d="M15.2,369.6v-3.4h19.6c4.5,0,7.8-0.7,9.9-2.1c2.1-1.4,3.2-3.5,3.2-6.4c0-2.9-1-5.5-3.1-7.7
			c-2.1-2.2-4.7-3.8-7.9-4.7H15.2V342h19.6c4.5,0,7.8-0.7,9.9-2c2.1-1.4,3.1-3.5,3.1-6.3c0-2.9-1-5.5-3-7.7c-2-2.2-4.6-3.8-7.9-4.8
			H15.2v-3.4h35.3v3.2H42c2.9,1.5,5.1,3.4,6.7,5.8c1.6,2.4,2.3,4.9,2.3,7.8c0,2.9-0.9,5.4-2.6,7.2c-1.7,1.9-4.1,3-6.9,3.4
			c3.2,1.7,5.5,3.7,7.1,6c1.6,2.3,2.4,4.9,2.4,7.9c0,1.9-0.3,3.6-1,4.9c-0.7,1.3-1.7,2.4-3,3.3c-1.3,0.9-3,1.5-4.9,1.9
			c-1.9,0.4-4.1,0.6-6.6,0.6H15.2z"/>
		<path class="st0" d="M14.5,397.2c0-3,0.8-5.7,2.4-8.1c1.6-2.4,3.6-4.3,5.9-5.7H0.7v-3.4h49.8v3.1h-7.1c2.3,1.5,4.1,3.4,5.5,5.8
			c1.4,2.4,2.1,4.9,2.1,7.6c0,2.5-0.5,4.8-1.5,6.8c-1,2-2.4,3.8-4.1,5.3c-1.7,1.5-3.7,2.7-5.9,3.5c-2.2,0.8-4.4,1.3-6.8,1.3
			c-3.3,0-6.3-0.7-9-2c-2.8-1.4-5-3.3-6.7-5.7C15.3,403.2,14.5,400.4,14.5,397.2z M17.5,396.4c0,2.1,0.4,4,1.3,5.6
			c0.9,1.7,2,3.1,3.5,4.2c1.4,1.2,3.1,2.1,4.9,2.7c1.8,0.6,3.7,1,5.6,1c2,0,4-0.4,5.8-1.1c1.8-0.7,3.4-1.7,4.8-3
			c1.4-1.3,2.5-2.8,3.4-4.5c0.8-1.7,1.3-3.5,1.3-5.5c0-1.2-0.2-2.5-0.7-3.9c-0.5-1.4-1.2-2.7-2.1-3.9c-0.9-1.2-1.9-2.3-3.1-3.1
			c-1.1-0.8-2.3-1.3-3.6-1.5H26.9c-1.7,0.8-3.3,1.9-4.7,3.2c-1.4,1.3-2.5,2.8-3.4,4.5C18,392.7,17.5,394.5,17.5,396.4z"/>
		<path class="st0" d="M14.5,436.3c0-2.5,0.5-4.8,1.4-6.9c0.9-2.1,2.3-3.9,4-5.5c1.7-1.5,3.6-2.7,5.8-3.6c2.2-0.9,4.5-1.3,6.9-1.3
			c2.5,0,4.9,0.4,7.1,1.3c2.2,0.9,4.1,2.1,5.8,3.6c1.7,1.6,3,3.4,4,5.5s1.5,4.4,1.5,6.8s-0.5,4.7-1.5,6.8s-2.3,3.9-4,5.5
			c-1.7,1.6-3.6,2.8-5.8,3.7c-2.2,0.9-4.6,1.3-7.1,1.3c-2.4,0-4.8-0.4-6.9-1.3c-2.2-0.9-4.1-2.1-5.8-3.6c-1.7-1.6-3-3.4-4-5.5
			S14.5,438.8,14.5,436.3z M32.6,422.5c-2.8,0-5.3,0.6-7.6,1.9c-2.3,1.2-4.1,2.9-5.4,5c-1.4,2.1-2,4.4-2,6.9s0.7,4.9,2.1,7
			c1.4,2.1,3.2,3.8,5.6,5c2.3,1.2,4.9,1.9,7.6,1.9c2.8,0,5.3-0.6,7.6-1.9s4.1-2.9,5.5-5c1.4-2.1,2.1-4.4,2.1-6.9
			c0-2.5-0.7-4.9-2.1-7c-1.4-2.1-3.3-3.8-5.6-5C38,423.1,35.4,422.5,32.6,422.5z"/>
	</g>
</g>
</svg>
